# Blender 4.1.0
# www.blender.org
o head
v 0.201021 0.330381 0.676562
v -0.153303 0.332916 0.669951
v 0.176608 0.085047 0.985705
v -0.140858 0.087318 0.979782
v 0.169025 0.502222 0.873828
v -0.125466 0.504329 0.868333
v 0.162841 0.284514 1.119818
v -0.129098 0.286603 1.114371
v 0.010613 0.368060 1.142987
v 0.014751 0.584280 0.898761
v 0.017628 0.396486 0.537723
v 0.011256 0.074667 0.985290
v 0.010818 0.514289 1.064770
v 0.204294 0.441598 1.017433
v 0.243839 0.184800 0.794621
v -0.199617 0.187972 0.786347
v -0.164277 0.444234 1.010557
v -0.170257 0.211224 1.008586
v -0.206597 0.316567 0.894949
v -0.158818 0.433728 0.751298
v 0.016645 0.513678 0.639311
v 0.205441 0.431123 0.758094
v 0.249291 0.313307 0.903455
v 0.206632 0.208528 1.015618
v 0.010876 0.073381 1.035923
v 0.084217 0.091486 1.032765
v 0.097507 0.131288 1.089247
v 0.081531 0.178431 1.122597
v 0.010459 0.247977 1.134011
v -0.049098 0.179420 1.121691
v -0.064453 0.131548 1.087310
v -0.050126 0.090955 1.030640
v 0.011522 0.009964 1.051013
v 0.065814 0.004650 1.077805
v 0.074255 -0.031135 1.122356
v 0.066138 -0.024403 1.172295
v 0.009394 -0.024402 1.188666
v -0.037888 -0.024512 1.170399
v -0.044606 -0.030982 1.119494
v -0.034562 0.005005 1.074859
v 0.014883 -0.037185 1.040130
v 0.020679 0.226232 0.721283
v -0.043825 0.137407 1.185231
v 0.009459 0.135931 1.196647
v 0.073805 0.136907 1.186682
v 0.088321 0.095518 1.146378
v 0.076997 0.104397 1.069032
v 0.011117 0.092347 1.061868
v -0.043843 0.080036 1.048068
v -0.057517 0.095768 1.143747
v -0.032238 -0.047600 1.104138
v 0.078709 0.014382 1.119262
v 0.071182 0.061863 1.105736
v 0.011052 0.076872 1.084142
v -0.039728 0.035441 1.082444
v -0.048064 0.024840 1.102890
v -0.041122 0.054227 1.201632
v 0.008970 0.042064 1.218536
v 0.069486 0.054137 1.203478
v 0.163864 0.192716 1.080679
v 0.143498 0.264644 1.117289
v 0.096511 0.196762 1.104939
v 0.118822 0.160421 1.098461
v -0.109838 0.266456 1.112761
v -0.129648 0.194708 1.075403
v -0.086824 0.161188 1.095538
v -0.063291 0.197942 1.103259
v 0.146378 0.225185 1.091541
v 0.137392 0.248340 1.108046
v 0.116760 0.222860 1.100169
v 0.125163 0.206939 1.100906
v -0.103622 0.250017 1.104169
v -0.113816 0.226666 1.087062
v -0.092392 0.207999 1.097615
v -0.083140 0.224496 1.097410
v 0.010576 0.331822 1.142734
v 0.120555 0.276873 1.126675
v 0.117850 0.244133 1.118054
v 0.122865 0.244020 1.109424
v 0.136016 0.210259 1.090007
v 0.144887 0.176309 1.086074
v 0.145463 0.163222 1.079892
v 0.137651 0.097625 1.009329
v 0.011096 0.074125 1.006640
v -0.102601 0.098715 1.005008
v -0.111582 0.164681 1.075553
v -0.111577 0.177784 1.081791
v -0.102410 0.211536 1.086099
v -0.087171 0.244630 1.105556
v -0.082406 0.244629 1.114264
v -0.087127 0.278382 1.123446
v -0.162829 0.072005 0.922284
v 0.010482 0.031315 0.939469
v 0.190499 0.077108 0.942665
v 0.227610 0.111198 0.721047
v 0.163021 0.174020 0.553995
v 0.019238 0.260791 0.398809
v -0.112936 0.175103 0.546266
v -0.181900 0.112540 0.712859
v 0.134294 0.134017 0.507209
v 0.215562 0.066497 0.571553
v 0.126133 0.007649 0.835401
v 0.009928 -0.016839 0.887861
v -0.087114 0.008363 0.832619
v -0.168736 0.069843 0.564091
v -0.082393 0.135121 0.498638
v 0.020259 0.228663 0.353784
vn 0.3931 0.5139 0.7625
vn 0.3932 0.5139 0.7625
vn 0.3932 0.5138 0.7625
vn 0.5671 0.7965 -0.2096
vn -0.9574 0.2643 -0.1165
vn -0.9574 0.2642 -0.1165
vn 0.9405 -0.3395 0.0143
vn 0.9405 -0.3394 0.0143
vn -0.4248 0.5230 0.7389
vn -0.5770 0.7878 -0.2154
vn -0.5770 0.7878 -0.2155
vn 0.3246 -0.1259 0.9374
vn -0.9532 -0.3023 -0.0078
vn 0.9646 0.2438 -0.1010
vn 0.9646 0.2438 -0.1011
vn -0.3728 -0.1202 0.9201
vn -0.3729 -0.1202 0.9201
vn 0.4268 0.8599 0.2800
vn 0.4268 0.8599 0.2799
vn 0.4269 0.8599 0.2800
vn -0.8979 0.3788 0.2242
vn -0.8979 0.3789 0.2242
vn -0.8979 0.3789 0.2243
vn 0.9090 -0.2376 0.3423
vn 0.9090 -0.2376 0.3424
vn -0.4404 0.8552 0.2733
vn -0.4405 0.8551 0.2733
vn -0.9257 -0.2011 0.3204
vn 0.9000 0.3611 0.2439
vn 0.9000 0.3612 0.2440
vn 0.9000 0.3612 0.2439
vn 0.0917 -0.9586 -0.2694
vn 0.0917 -0.9586 -0.2696
vn 0.6169 -0.7521 0.2318
vn 0.6169 -0.7522 0.2318
vn 0.6169 -0.7521 0.2317
vn 0.2793 -0.8457 0.4547
vn 0.2794 -0.8457 0.4547
vn 0.1314 -0.5761 0.8068
vn 0.1315 -0.5760 0.8068
vn 0.1315 -0.5761 0.8067
vn -0.1761 -0.5711 0.8018
vn -0.2794 -0.8435 0.4587
vn -0.6482 -0.7299 0.2171
vn -0.6482 -0.7299 0.2172
vn -0.6481 -0.7299 0.2171
vn -0.1223 -0.9531 -0.2768
vn -0.1222 -0.9531 -0.2769
vn -0.1222 -0.9531 -0.2768
vn 0.1532 -0.9795 -0.1310
vn 0.1531 -0.9795 -0.1311
vn 0.7563 -0.5262 -0.3888
vn 0.7562 -0.5262 -0.3889
vn 0.9529 -0.0175 0.3028
vn 0.9529 -0.0174 0.3028
vn 0.3577 0.0434 0.9328
vn 0.3576 0.0434 0.9328
vn -0.4237 0.0458 0.9046
vn -0.4238 0.0457 0.9046
vn -0.9604 0.0078 0.2785
vn -0.9225 -0.2795 -0.2662
vn -0.9225 -0.2794 -0.2661
vn -0.0666 -0.9072 -0.4154
vn -0.0665 -0.9072 -0.4154
vn 0.4016 0.7093 -0.5794
vn 0.6926 -0.0770 -0.7172
vn -0.0598 -0.8754 -0.4797
vn -0.0599 -0.8754 -0.4797
vn 0.0218 -0.8588 -0.5118
vn 0.0219 -0.8588 -0.5118
vn -0.0266 -0.8576 -0.5136
vn -0.0265 -0.8577 -0.5136
vn -0.0265 -0.8576 -0.5136
vn 0.3150 -0.9176 -0.2425
vn 0.3149 -0.9176 -0.2425
vn -0.7206 0.0487 -0.6916
vn -0.7206 0.0487 -0.6917
vn -0.7205 0.0487 -0.6917
vn -0.4191 0.6603 -0.6232
vn 0.9311 0.2561 -0.2597
vn 0.9410 -0.3377 -0.0223
vn 0.9410 -0.3377 -0.0224
vn 0.1163 -0.9897 -0.0830
vn 0.1164 -0.9897 -0.0828
vn 0.1163 -0.9897 -0.0829
vn -0.1521 -0.9856 -0.0732
vn -0.1521 -0.9857 -0.0732
vn -0.1521 -0.9857 -0.0731
vn -0.9729 -0.2298 0.0256
vn -0.9729 -0.2298 0.0255
vn -0.9212 0.2747 -0.2754
vn -0.9213 0.2747 -0.2754
vn -0.6715 0.7016 -0.2384
vn -0.6715 0.7017 -0.2384
vn 0.6580 0.7172 -0.2293
vn 0.1203 -0.1775 -0.9767
vn 0.1227 -0.1772 -0.9765
vn 0.1226 -0.1772 -0.9765
vn 0.9341 0.0585 -0.3521
vn 0.9536 -0.2532 0.1628
vn 0.9536 -0.2532 0.1627
vn 0.1503 -0.3970 0.9054
vn 0.1504 -0.3971 0.9054
vn -0.2056 -0.3938 0.8959
vn -0.2055 -0.3938 0.8959
vn -0.9665 -0.2313 0.1108
vn -0.9666 -0.2313 0.1108
vn -0.9714 0.0234 -0.2363
vn 0.3654 -0.1020 -0.9253
vn 0.3653 -0.1021 -0.9253
vn 0.3653 -0.1020 -0.9253
vn 0.3716 0.8122 -0.4497
vn 0.3717 0.8122 -0.4497
vn 0.9435 0.1741 -0.2818
vn 0.9767 -0.1977 0.0834
vn 0.9767 -0.1978 0.0834
vn 0.2431 -0.8306 0.5010
vn 0.2432 -0.8306 0.5009
vn -0.3155 -0.8142 0.4874
vn -0.9903 -0.1265 0.0569
vn -0.9063 0.1140 -0.4070
vn -0.9063 0.1141 -0.4070
vn -0.3212 0.7967 -0.5120
vn -0.3213 0.7967 -0.5120
vn 0.7087 -0.5995 0.3720
vn 0.1978 -0.7846 0.5877
vn 0.1978 -0.7845 0.5877
vn 0.4146 -0.6847 0.5994
vn 0.4147 -0.6847 0.5994
vn 0.4772 -0.8380 0.2647
vn 0.4773 -0.8380 0.2647
vn -0.7350 -0.5772 0.3558
vn -0.7381 -0.6714 0.0662
vn -0.4439 -0.6734 0.5912
vn -0.4440 -0.6733 0.5912
vn -0.7646 -0.6158 0.1904
vn -0.7646 -0.6158 0.1905
vn -0.2764 -0.9034 0.3280
vn -0.2764 -0.9033 0.3280
vn 0.4000 -0.9123 0.0882
vn 0.3999 -0.9123 0.0882
vn 0.1288 -0.5975 0.7915
vn 0.4996 -0.5464 0.6722
vn 0.4995 -0.5465 0.6722
vn 0.4994 -0.5465 0.6723
vn 0.2382 -0.9125 0.3326
vn 0.2381 -0.9125 0.3326
vn -0.2652 -0.6544 0.7081
vn -0.2651 -0.6544 0.7082
vn -0.2651 -0.6544 0.7081
vn -0.1723 -0.5899 0.7889
vn -0.1722 -0.5900 0.7889
vn -0.7029 -0.6833 0.1975
vn 0.1784 -0.8425 -0.5084
vn 0.1785 -0.8425 -0.5083
vn 0.1786 -0.8424 -0.5083
vn 0.3961 -0.9182 0.0047
vn 0.3961 -0.9182 0.0048
vn 0.3190 -0.6973 0.6419
vn 0.0781 -0.6525 0.7537
vn 0.0783 -0.6525 0.7537
vn 0.0756 -0.6526 0.7539
vn -0.1165 -0.6469 0.7536
vn -0.1165 -0.6469 0.7537
vn -0.3886 -0.6417 0.6612
vn -0.3885 -0.6417 0.6613
vn -0.4346 -0.9006 -0.0041
vn -0.4345 -0.9007 -0.0042
vn -0.4345 -0.9007 -0.0041
vn -0.2082 -0.8356 -0.5084
vn 0.6983 -0.6718 0.2471
vn 0.6983 -0.6719 0.2470
vn 0.6983 -0.6718 0.2470
vn 0.7102 -0.6993 0.0814
vn -0.5288 -0.8205 0.2173
vn -0.5289 -0.8204 0.2173
vn -0.5288 -0.8204 0.2173
vn -0.2384 -0.7870 0.5690
vn -0.2385 -0.7870 0.5691
vn 0.6883 -0.7103 0.1477
vn 0.6882 -0.7103 0.1476
vn 0.6882 -0.7103 0.1477
vn 0.2196 -0.6603 0.7182
vn -0.5491 -0.5188 0.6552
vn -0.5492 -0.5188 0.6552
vn -0.4046 -0.9095 0.0958
vn -0.4045 -0.9095 0.0958
vn 0.9030 0.2933 -0.3138
vn 0.9030 0.2934 -0.3138
vn 0.9030 0.2933 -0.3139
vn 0.6952 -0.6474 -0.3124
vn 0.6951 -0.6475 -0.3124
vn 0.1696 -0.9850 -0.0300
vn 0.1696 -0.9851 -0.0300
vn -0.2107 -0.9772 -0.0267
vn -0.2106 -0.9772 -0.0266
vn -0.6771 -0.6305 -0.3795
vn -0.6772 -0.6304 -0.3795
vn -0.8920 0.3084 -0.3304
vn -0.7657 0.6400 -0.0642
vn -0.7657 0.6400 -0.0641
vn -0.7656 0.6401 -0.0642
vn 0.7359 0.6769 -0.0174
vn 0.7358 0.6770 -0.0174
vn -0.6201 -0.5534 -0.5561
vn -0.6185 -0.3480 -0.7045
vn -0.6185 -0.3479 -0.7045
vn -0.0331 -0.1035 -0.9941
vn -0.0330 -0.1036 -0.9941
vn 0.0607 -0.1074 -0.9924
vn 0.6387 -0.3567 -0.6817
vn 0.6308 -0.5681 -0.5285
vn 0.5155 -0.6884 -0.5102
vn 0.5154 -0.6885 -0.5102
vn -0.4763 -0.7072 -0.5225
vn -0.4764 -0.7071 -0.5225
vn -0.4763 -0.7071 -0.5225
vn -0.9532 -0.3022 -0.0078
vn 0.4269 0.8599 0.2799
vn -0.4405 0.8552 0.2733
vn 0.0916 -0.9586 -0.2695
vn 0.3576 0.0434 0.9329
vn -0.4239 0.0458 0.9046
vn -0.9225 -0.2794 -0.2662
vn -0.9729 -0.2299 0.0256
vn -0.6715 0.7016 -0.2385
vn 0.1227 -0.1771 -0.9765
vn 0.9341 0.0586 -0.3521
vn -0.9714 0.0235 -0.2364
vn 0.3656 -0.1020 -0.9252
vn 0.3680 0.8130 -0.4513
vn -0.3156 -0.8142 0.4874
vn 0.1978 -0.7846 0.5876
vn 0.4773 -0.8379 0.2646
vn -0.7350 -0.5772 0.3559
vn 0.1287 -0.5975 0.7915
vn -0.1722 -0.5900 0.7888
vn 0.1827 -0.8416 -0.5083
vn 0.3962 -0.9181 0.0048
vn 0.3190 -0.6972 0.6420
vn 0.0782 -0.6525 0.7537
vn -0.1166 -0.6469 0.7536
vn -0.3886 -0.6416 0.6613
vn 0.6882 -0.7104 0.1477
vn 0.2196 -0.6602 0.7182
vn -0.4045 -0.9095 0.0957
vn -0.8920 0.3084 -0.3305
vn -0.7657 0.6400 -0.0643
vn 0.7358 0.6769 -0.0174
vt 0.338154 0.302135
vt 0.522049 0.409164
vt 0.293651 0.395843
vt 0.302541 0.227621
vt 0.522318 0.169185
vt 0.296593 0.251778
vt 0.721547 0.227620
vt 0.780658 0.358742
vt 0.727348 0.251778
vt 0.304762 0.312348
vt 0.319286 0.482696
vt 0.415508 0.392944
vt 0.686406 0.302135
vt 0.520646 0.300317
vt 0.522110 0.137205
vt 0.520032 0.484923
vt 0.705232 0.482696
vt 0.720274 0.314228
vt 0.608231 0.396478
vt 0.241548 0.358742
vt 0.729506 0.395843
vt 0.668549 0.488084
vt 0.841152 0.856883
vt 0.780929 0.845675
vt 0.841085 0.847989
vt 0.426517 0.760102
vt 0.563246 0.714097
vt 0.566517 0.771621
vt 0.945087 0.683066
vt 0.829600 0.792355
vt 0.888325 0.624857
vt 0.597940 0.914248
vt 0.529450 0.977741
vt 0.512096 0.956449
vt 0.658596 0.977675
vt 0.675971 0.956449
vt 0.795960 0.696528
vt 0.932467 0.778548
vt 0.858469 0.804143
vt 0.430089 0.713988
vt 0.566517 0.761507
vt 0.426517 0.771427
vt 0.895307 0.845885
vt 0.913137 0.852280
vt 0.352397 0.881540
vt 0.423072 0.853550
vt 0.425761 0.880854
vt 0.147353 0.823747
vt 0.112178 0.849062
vt 0.073342 0.834170
vt 0.059773 0.843545
vt 0.084515 0.905001
vt 0.048194 0.910581
vt 0.095302 0.982683
vt 0.022876 0.888550
vt 0.096164 0.894231
vt 0.157876 0.889823
vt 0.141458 0.904438
vt 0.167389 0.843972
vt 0.177324 0.911510
vt 0.152890 0.957308
vt 0.167608 0.964563
vt 0.477993 0.864392
vt 0.487397 0.880437
vt 0.113723 0.926599
vt 0.106628 0.922298
vt 0.113870 0.921666
vt 0.108312 0.916767
vt 0.108899 0.912561
vt 0.114664 0.911359
vt 0.119653 0.912919
vt 0.118285 0.918858
vt 0.121806 0.924732
vt 0.120173 0.917703
vt 0.319119 0.252406
vt 0.348518 0.192747
vt 0.414509 0.170121
vt 0.604482 0.324705
vt 0.343800 0.265272
vt 0.841627 0.883153
vt 0.763043 0.852017
vt 0.414400 0.323995
vt 0.605787 0.170121
vt 0.656200 0.244270
vt 0.705009 0.253302
vt 0.674890 0.191484
vt 0.521669 0.088160
vt 0.106190 0.949123
vt 0.058092 0.938601
vt 0.090512 0.923206
vt 0.104111 0.903292
vt 0.091555 0.884619
vt 0.115803 0.881122
vt 0.124254 0.903291
vt 0.135546 0.885019
vt 0.130030 0.930998
vt 0.104012 0.966213
vt 0.103071 0.917197
vt 0.114973 0.902926
vt 0.129738 0.921453
vt 0.818278 0.653475
vt 0.805262 0.702043
vt 0.795960 0.705073
vt 0.832494 0.671650
vt 0.820584 0.666057
vt 0.830072 0.713946
vt 0.852464 0.687481
vt 0.839897 0.727952
vt 0.814525 0.715542
vt 0.958392 0.653603
vt 0.971639 0.702121
vt 0.956144 0.666176
vt 0.962377 0.715817
vt 0.980960 0.705073
vt 0.923886 0.687588
vt 0.947183 0.714265
vt 0.936919 0.728535
vt 0.941746 0.676205
vt 0.934516 0.698619
vt 0.256221 0.983708
vt 0.293823 0.932651
vt 0.340780 0.909306
vt 0.232499 0.938691
vt 0.262217 0.956951
vt 0.242224 0.865005
vt 0.275247 0.896064
vt 0.255903 0.909691
vt 0.324565 0.875724
vt 0.295372 0.837683
vt 0.314817 0.983708
vt 0.276446 0.933096
vt 0.309514 0.957180
vt 0.232499 0.907926
vt 0.280736 0.908371
vt 0.331574 0.866024
vt 0.296883 0.896117
vt 0.277467 0.837683
vt 0.340494 0.936287
vt 0.317208 0.910382
vt 0.806083 0.836528
vt 0.475017 0.635909
vt 0.447191 0.707824
vt 0.795960 0.695457
vt 0.891302 0.686125
vt 0.891505 0.654233
vt 0.944244 0.671931
vt 0.845967 0.634362
vt 0.942318 0.690557
vt 0.519694 0.636345
vt 0.546549 0.708817
vt 0.870256 0.836642
vt 0.833921 0.675436
vt 0.815355 0.709168
vt 0.961734 0.709383
vt 0.246644 0.939340
vt 0.291541 0.908696
vt 0.248623 0.874966
vt 0.326605 0.936846
vt 0.658576 0.850172
vt 0.637705 0.841473
vt 0.661097 0.838300
vt 0.715421 0.950724
vt 0.787548 0.900166
vt 0.728214 0.978835
vt 0.777273 0.879677
vt 0.887773 0.900243
vt 0.841958 0.901425
vt 0.959869 0.951046
vt 0.898385 0.879826
vt 0.709043 0.849677
vt 0.730142 0.840988
vt 0.731386 0.849622
vt 0.684557 0.844850
vt 0.706459 0.837591
vt 0.684468 0.831417
vt 0.342069 0.234689
vt 0.514314 0.277556
vt 0.383276 0.166383
vt 0.440731 0.218702
vt 0.731386 0.867722
vt 0.636386 0.921768
vt 0.695590 0.831417
vt 0.580121 0.221238
vt 0.516375 0.260771
vt 0.681209 0.233879
vt 0.639586 0.164141
vt 0.521333 0.058967
vt 0.356524 0.488084
vt 0.901918 0.804143
vt 0.597843 0.955404
vt 0.357795 0.848364
vt 0.188317 0.883038
vt 0.031368 0.976676
vt 0.148694 0.977734
vt 0.656200 0.252254
vt 0.343800 0.226566
vt 0.842001 0.698532
vt 0.840991 0.835868
vt 0.560002 0.635135
vt 0.816891 0.619143
vt 0.910518 0.619143
vt 0.433754 0.635135
vt 0.636386 0.849962
vt 0.946804 0.979442
s 1
f 5/1/1 13/2/2 14/3/3
f 1/4/4 21/5/4 22/6/4
f 2/7/5 19/8/6 20/9/5
f 15/10/7 24/11/8 3/12/7
f 6/13/9 13/2/9 10/14/9
f 2/7/10 21/5/11 11/15/11
f 9/16/12 14/3/12 13/2/12
f 18/17/13 16/18/13 4/19/13
f 1/4/14 23/20/14 15/10/15
f 9/16/16 17/21/16 8/22/17
f 21/5/18 5/1/19 22/6/20
f 19/8/21 6/13/22 20/9/23
f 14/3/24 24/11/25 23/20/25
f 6/13/26 21/5/27 20/9/26
f 17/21/28 18/17/28 8/22/28
f 5/1/29 23/20/30 22/6/31
f 12/23/32 83/24/33 84/25/32
f 24/26/34 83/27/35 3/28/36
f 68/29/37 79/30/38 80/31/37
f 9/32/39 77/33/40 7/34/41
f 91/35/42 9/32/42 8/36/42
f 73/37/43 89/38/43 72/39/43
f 85/40/44 18/41/45 4/42/46
f 12/23/47 85/43/48 4/44/49
f 26/45/50 48/46/51 25/47/50
f 27/48/52 47/49/53 26/50/53
f 28/51/54 46/52/55 27/53/54
f 44/54/56 28/55/57 29/56/57
f 30/57/58 44/54/59 29/56/59
f 50/58/60 30/59/60 31/60/60
f 49/61/61 31/60/62 32/62/61
f 25/47/63 49/63/63 32/64/64
f 33/65/65 34/66/65 41/67/65
f 34/66/66 35/68/66 41/67/66
f 35/68/67 36/69/68 41/67/68
f 36/69/69 37/70/70 41/67/69
f 37/70/71 38/71/72 41/67/73
f 38/71/74 51/72/74 41/67/75
f 40/73/76 51/72/77 39/74/78
f 40/73/79 33/65/79 41/67/79
f 1/4/80 95/75/80 96/76/80
f 15/77/81 94/78/81 95/79/82
f 93/80/83 3/81/84 12/23/85
f 4/44/86 93/80/87 12/23/88
f 16/82/89 92/83/89 4/84/90
f 2/7/91 99/85/91 16/18/92
f 11/15/93 98/86/93 2/7/94
f 11/15/95 96/76/95 97/87/95
f 54/88/96 47/89/97 53/90/98
f 46/52/99 53/90/99 47/89/99
f 59/91/100 46/52/101 45/92/101
f 44/93/102 59/91/102 45/92/103
f 57/94/104 44/93/104 43/95/105
f 50/58/106 57/94/107 43/95/107
f 55/96/108 50/58/108 49/61/108
f 54/88/109 49/61/110 48/97/111
f 34/66/112 54/88/113 53/90/112
f 52/98/114 34/66/114 53/90/114
f 36/69/115 52/98/116 59/91/116
f 58/99/117 36/69/117 59/91/118
f 37/70/119 57/94/119 38/71/119
f 38/71/120 56/100/120 39/74/120
f 40/73/121 56/100/121 55/96/122
f 33/65/123 55/96/124 54/88/123
f 7/101/125 60/102/125 24/103/125
f 77/104/126 61/105/126 7/101/127
f 63/106/128 28/107/129 27/108/128
f 82/109/130 63/106/131 27/108/130
f 8/110/132 65/111/132 64/112/132
f 86/113/133 65/111/133 18/114/133
f 30/115/134 66/116/135 31/117/135
f 30/115/136 90/118/137 67/119/136
f 61/120/138 68/121/138 60/122/139
f 78/123/140 69/124/140 61/120/141
f 62/125/142 71/126/142 70/127/142
f 81/128/143 71/126/144 63/129/145
f 64/130/146 73/131/147 72/132/147
f 65/133/148 88/134/149 73/131/150
f 67/135/151 74/136/152 66/137/152
f 90/138/153 75/139/153 67/135/153
f 26/140/154 84/25/155 83/24/156
f 27/141/157 83/27/158 82/142/157
f 70/143/159 80/31/159 79/30/159
f 29/144/160 77/104/161 76/145/162
f 29/144/163 91/146/163 30/115/164
f 88/147/165 75/148/166 89/38/166
f 85/40/167 31/149/168 86/150/169
f 84/25/170 32/151/170 85/43/170
f 28/107/171 78/152/172 77/104/173
f 82/109/174 60/102/174 81/153/174
f 86/113/175 66/116/176 87/154/177
f 91/146/178 64/112/179 90/118/178
f 78/123/180 70/127/181 79/155/182
f 60/122/183 80/156/183 81/128/183
f 87/157/184 74/136/185 88/134/185
f 90/138/186 72/132/187 89/158/187
f 96/159/188 101/160/189 100/161/190
f 95/162/191 102/163/192 101/164/192
f 93/80/193 102/163/194 94/165/194
f 93/80/195 104/166/196 103/167/195
f 99/168/197 104/166/198 92/169/198
f 98/170/199 105/171/199 99/172/199
f 97/173/200 106/174/201 98/170/202
f 97/173/203 100/161/204 107/175/203
f 101/176/205 42/177/205 100/178/205
f 102/179/206 42/177/207 101/176/206
f 103/180/208 42/181/209 102/182/208
f 104/183/210 42/177/210 103/184/210
f 105/185/211 42/177/211 104/183/211
f 106/186/212 42/177/212 105/185/212
f 107/187/213 42/177/214 106/186/214
f 100/178/215 42/177/216 107/187/217
f 5/1/1 10/14/1 13/2/2
f 1/4/4 11/15/4 21/5/4
f 2/7/5 16/18/5 19/8/6
f 15/10/7 23/20/8 24/11/8
f 6/13/9 17/21/9 13/2/9
f 2/7/10 20/9/10 21/5/11
f 9/16/12 7/188/12 14/3/12
f 18/17/13 19/8/218 16/18/13
f 1/4/14 22/6/14 23/20/14
f 9/16/16 13/2/16 17/21/16
f 21/5/18 10/14/219 5/1/19
f 19/8/21 17/21/22 6/13/22
f 14/3/24 7/188/25 24/11/25
f 6/13/26 10/14/220 21/5/27
f 17/21/28 19/8/28 18/17/28
f 5/1/29 14/3/31 23/20/30
f 12/23/32 3/81/221 83/24/33
f 24/26/34 82/142/34 83/27/35
f 68/29/37 69/189/37 79/30/38
f 9/32/39 76/190/40 77/33/40
f 91/35/42 76/190/42 9/32/42
f 73/37/43 88/147/43 89/38/43
f 85/40/44 86/150/45 18/41/45
f 12/23/47 84/25/47 85/43/48
f 26/45/50 47/191/50 48/46/51
f 27/48/52 46/192/52 47/49/53
f 28/51/54 45/92/54 46/52/55
f 44/54/56 45/193/222 28/55/57
f 30/57/58 43/194/223 44/54/59
f 50/58/60 43/95/60 30/59/60
f 49/61/61 50/58/224 31/60/62
f 25/47/63 48/46/63 49/63/63
f 38/71/74 39/74/75 51/72/74
f 40/73/76 41/67/77 51/72/77
f 1/4/80 15/10/80 95/75/80
f 15/77/81 3/195/82 94/78/81
f 93/80/83 94/165/85 3/81/84
f 4/44/86 92/169/88 93/80/87
f 16/82/89 99/196/225 92/83/89
f 2/7/91 98/86/91 99/85/91
f 11/15/93 97/87/226 98/86/93
f 11/15/95 1/4/95 96/76/95
f 54/88/96 48/97/227 47/89/97
f 46/52/99 52/98/228 53/90/99
f 59/91/100 52/98/100 46/52/101
f 44/93/102 58/99/102 59/91/102
f 57/94/104 58/99/105 44/93/104
f 50/58/106 56/100/106 57/94/107
f 55/96/108 56/100/229 50/58/108
f 54/88/109 55/96/230 49/61/110
f 34/66/112 33/65/231 54/88/113
f 52/98/114 35/68/114 34/66/114
f 36/69/115 35/68/115 52/98/116
f 58/99/117 37/70/117 36/69/117
f 37/70/119 58/99/232 57/94/119
f 38/71/120 57/94/120 56/100/120
f 40/73/121 39/74/122 56/100/121
f 33/65/123 40/73/124 55/96/124
f 7/101/125 61/105/125 60/102/125
f 77/104/126 78/152/233 61/105/126
f 63/106/128 62/197/129 28/107/129
f 82/109/130 81/153/234 63/106/131
f 8/110/132 18/114/235 65/111/132
f 86/113/133 87/154/133 65/111/133
f 30/115/134 67/119/135 66/116/135
f 30/115/136 91/146/136 90/118/137
f 61/120/138 69/124/139 68/121/138
f 78/123/140 79/155/140 69/124/140
f 62/125/142 63/129/236 71/126/142
f 81/128/143 80/156/144 71/126/144
f 64/130/146 65/133/146 73/131/147
f 65/133/148 87/157/150 88/134/149
f 67/135/151 75/139/237 74/136/152
f 90/138/153 89/158/153 75/139/153
f 26/140/154 25/198/238 84/25/155
f 27/141/157 26/199/239 83/27/158
f 70/143/159 71/200/240 80/31/159
f 29/144/160 28/107/241 77/104/161
f 29/144/163 76/145/242 91/146/163
f 88/147/165 74/201/243 75/148/166
f 85/40/167 32/202/169 31/149/168
f 84/25/170 25/198/170 32/151/170
f 28/107/171 62/197/173 78/152/172
f 82/109/174 24/103/174 60/102/174
f 86/113/175 31/117/176 66/116/176
f 91/146/178 8/110/178 64/112/179
f 78/123/180 62/125/244 70/127/181
f 60/122/183 68/121/245 80/156/183
f 87/157/184 66/137/184 74/136/185
f 90/138/186 64/130/246 72/132/187
f 96/159/188 95/203/188 101/160/189
f 95/162/191 94/165/191 102/163/192
f 93/80/193 103/167/194 102/163/194
f 93/80/195 92/169/196 104/166/196
f 99/168/197 105/204/198 104/166/198
f 98/170/199 106/174/247 105/171/199
f 97/173/200 107/175/248 106/174/201
f 97/173/203 96/159/249 100/161/204
