# Blender 4.1.0
# www.blender.org
o rwing
v -0.766542 0.118667 -0.299516
v -0.673105 0.009718 -0.136741
v -1.331354 0.074822 -0.415397
v -1.390752 0.172757 -0.569039
v -0.309303 0.035397 -0.281926
v -0.179717 -0.016175 -0.134185
v -1.562155 0.087645 -0.468020
v -1.575924 0.147802 -0.578725
v -0.563465 -0.118124 0.054260
v -0.392395 -0.199065 0.449986
v -1.149626 -0.151397 0.125334
v -1.261656 -0.040094 -0.235113
v -0.219500 -0.171630 0.237078
v -0.027658 -0.076689 0.039174
v -1.545997 0.017056 -0.338119
v -1.374544 -0.086317 -0.033091
v -1.707914 0.010143 -0.267905
v -1.967439 0.101764 -0.490791
v -0.802698 0.185214 -0.224971
v -1.318291 0.229892 -0.447595
v -1.302287 0.192585 -0.318242
v -0.704091 0.144772 -0.060468
v -0.425022 0.116434 -0.210442
v -0.318475 0.084817 -0.082710
v -1.471242 0.209280 -0.455596
v -1.479806 0.190041 -0.360398
v -1.904241 0.106651 -0.546017
v -1.742921 0.186270 -0.422880
v -1.697942 0.178728 -0.467454
v -1.850384 0.110815 -0.593081
v -1.533864 0.075550 -0.223241
v -1.580264 0.095574 -0.198861
v -0.493655 -0.077231 0.394113
v -1.119123 -0.037857 0.125952
v -0.229226 -0.087530 0.267644
v -0.193451 0.047719 0.067171
v -0.588384 0.097317 0.132560
v -1.283506 0.148809 -0.166458
v -1.438374 0.156502 -0.206890
v -1.795698 0.195121 -0.370577
v -1.819186 0.095621 -0.147499
v -1.888495 0.049235 -0.184988
v -1.936159 0.149672 -0.240735
v -2.029409 0.098982 -0.306008
v -2.035186 0.113560 -0.130729
vn 0.1833 -0.7799 -0.5985
vn -0.0961 -0.9107 -0.4018
vn 0.1041 -0.8406 -0.5316
vn 0.1041 -0.8406 -0.5315
vn 0.1042 -0.8406 -0.5315
vn 0.0240 -0.9667 -0.2547
vn 0.0240 -0.9667 -0.2548
vn 0.0018 -0.9588 -0.2840
vn -0.0828 -0.9549 -0.2850
vn -0.0829 -0.9549 -0.2851
vn -0.0360 0.9626 0.2687
vn -0.0419 0.9617 0.2708
vn -0.0375 0.9624 0.2692
vn 0.1662 0.9782 0.1245
vn -0.1049 0.9635 0.2461
vn -0.1049 0.9636 0.2461
vn 0.3042 0.7792 -0.5481
vn -0.1049 0.9225 -0.3714
vn -0.2224 0.9356 -0.2744
vn -0.2224 0.9356 -0.2743
vn -0.3596 0.3728 0.8554
vn -0.3596 0.3729 0.8554
vn -0.3868 0.0989 0.9168
vn 0.5551 0.3895 0.7350
vn 0.6785 0.3978 0.6175
vn 0.6786 0.3977 0.6175
vn 0.6785 0.3978 0.6176
vn 0.1645 0.7741 -0.6113
vn -0.2045 0.7735 0.6000
vn -0.2045 0.7734 0.6000
vn 0.2266 0.8221 0.5223
vn 0.2267 0.8221 0.5223
vn -0.1957 0.5617 0.8038
vn -0.1957 0.5618 0.8038
vn -0.1958 0.5618 0.8038
vn 0.5425 0.8107 -0.2202
vn 0.5425 0.8106 -0.2202
vn 0.1410 -0.7411 0.6564
vn 0.0891 0.9061 0.4135
vn -0.4063 0.9054 -0.1226
vn -0.2540 -0.9620 -0.0997
vn 0.0072 -0.6351 0.7724
vn 0.1065 0.9123 0.3953
vn -0.4269 0.8999 -0.0889
vn -0.3808 -0.9224 0.0642
vn 0.1660 -0.7867 -0.5946
vn 0.0077 -0.8860 -0.4636
vn 0.0417 -0.8524 -0.5213
vn -0.0429 0.9616 0.2712
vn 0.1525 0.9791 0.1344
vn 0.1525 0.9791 0.1343
vn 0.0121 0.9927 0.1197
vn 0.0121 0.9927 0.1198
vn -0.2527 0.9177 -0.3064
vn -0.2528 0.9177 -0.3064
vn 0.5112 0.8394 -0.1847
vn 0.0809 -0.9300 -0.3586
vn 0.0808 -0.9300 -0.3586
vn 0.0809 -0.9300 -0.3587
vn -0.0913 -0.9584 -0.2703
vn -0.0912 -0.9585 -0.2703
vn -0.0779 0.9955 0.0534
vn -0.0779 0.9955 0.0535
vn -0.5450 0.2872 0.7877
vn -0.5450 0.2871 0.7877
vn -0.3425 0.6304 0.6966
vn -0.3424 0.6304 0.6966
vn -0.0109 -0.9250 -0.3798
vn -0.0109 -0.9250 -0.3799
vn -0.0481 0.9660 0.2542
vn -0.0482 0.9660 0.2541
vn -0.0960 -0.9107 -0.4017
vn -0.0828 -0.9549 -0.2851
vn -0.0360 0.9625 0.2687
vn -0.3595 0.3728 0.8554
vn 0.6785 0.3977 0.6176
vn -0.4064 0.9054 -0.1226
vn 0.1660 -0.7867 -0.5945
vn 0.0078 -0.8860 -0.4635
vn 0.0417 -0.8523 -0.5213
vn -0.0429 0.9616 0.2711
vn -0.2527 0.9177 -0.3065
vn -0.0482 0.9660 0.2542
vt 0.504254 0.901539
vt 0.392205 0.941092
vt 0.358455 0.903430
vt 0.595143 0.872741
vt 0.545479 0.939637
vt 0.674506 0.853762
vt 0.679959 0.888460
vt 0.616358 0.369932
vt 0.407284 0.471728
vt 0.311548 0.296325
vt 0.773005 0.426483
vt 0.813698 0.296325
vt 0.829110 0.912764
vt 0.826132 0.912028
vt 0.826564 0.905278
vt 0.523539 0.850125
vt 0.405217 0.830194
vt 0.565519 0.811237
vt 0.607227 0.876987
vt 0.646816 0.852858
vt 0.689720 0.891025
vt 0.681183 0.898894
vt 0.679959 0.888460
vt 0.525961 0.882800
vt 0.385445 0.867073
vt 0.698402 0.897671
vt 0.688579 0.899757
vt 0.682999 0.914358
vt 0.694983 0.923908
vt 0.691009 0.926322
vt 0.826493 0.346073
vt 0.849278 0.333499
vt 0.837999 0.391968
vt 0.413782 0.108137
vt 0.655357 0.144681
vt 0.423191 0.164378
vt 0.702016 0.092129
vt 0.737569 0.199152
vt 0.729173 0.308887
vt 0.776169 0.181377
vt 0.629065 0.913719
vt 0.592176 0.267565
vt 0.678162 0.733308
vt 0.671436 0.726966
vt 0.694734 0.723908
vt 0.878859 0.672530
vt 0.881137 0.662104
vt 0.888535 0.667574
vt 0.807778 0.788782
vt 0.825230 0.713265
vt 0.856730 0.731064
vt 0.750597 0.631086
vt 0.749390 0.750629
vt 0.686357 0.929175
vt 0.668380 0.924206
vt 0.678425 0.916279
vt 0.666257 0.939828
vt 0.672992 0.930240
vt 0.888535 0.674539
vt 0.828933 0.650736
vt 0.660770 0.930883
vt 0.853410 0.661578
vt 0.838758 0.666433
vt 0.834127 0.660564
vt 0.636812 0.899189
vt 0.593015 0.985232
vt 0.422646 0.738593
vt 0.420345 0.729092
vt 0.427872 0.730746
vt 0.838408 0.653862
vt 0.860303 0.659445
vt 0.868796 0.652642
vt 0.873374 0.666799
vt 0.809101 0.681944
vt 0.748240 0.652501
vt 0.891539 0.676403
vt 0.888413 0.677807
vt 0.890329 0.672846
vt 0.686888 0.912699
vt 0.697024 0.908241
vt 0.813698 0.424893
vt 0.832417 0.430279
vt 0.797743 0.367226
vt 0.807447 0.349391
vt 0.686357 0.929175
vt 0.832964 0.652874
vt 0.850162 0.701809
vt 0.738568 0.551498
vt 0.826390 0.919806
vt 0.825180 0.338100
vt 0.674870 0.734566
vt 0.674759 0.948691
vt 0.859146 0.667574
vt 0.411204 0.737865
vt 0.888535 0.681504
s 1
f 1/1/1 3/2/1 4/3/1
f 5/4/2 2/5/2 1/1/2
f 4/6/3 7/7/4 8/6/5
f 9/8/6 11/9/7 12/10/7
f 13/11/8 9/8/8 14/12/8
f 15/13/9 17/14/10 18/15/10
f 19/16/11 21/17/12 22/18/13
f 23/19/14 22/18/14 24/20/14
f 20/21/15 26/22/16 21/23/15
f 1/24/17 20/25/17 19/16/17
f 4/26/18 25/27/18 20/21/18
f 28/28/19 30/29/20 27/30/20
f 31/31/21 17/32/21 16/33/22
f 11/34/23 33/35/23 34/36/23
f 10/37/24 35/38/24 33/35/24
f 36/39/25 13/40/26 14/12/27
f 1/24/28 23/19/28 5/41/28
f 34/36/29 37/42/29 38/10/30
f 35/38/31 37/42/32 33/35/32
f 32/43/33 39/44/34 40/45/35
f 6/46/36 36/47/37 14/48/36
f 17/49/38 41/50/38 42/51/38
f 40/52/39 41/50/39 32/53/39
f 18/54/40 43/55/40 40/56/40
f 18/54/41 42/57/41 44/58/41
f 42/51/42 41/50/42 45/59/42
f 41/50/43 43/60/43 45/59/43
f 43/55/44 44/58/44 45/61/44
f 44/58/45 42/57/45 45/61/45
f 2/62/46 12/63/46 3/64/46
f 6/65/47 9/66/47 2/5/47
f 3/67/48 15/68/48 7/69/48
f 38/70/49 22/71/13 21/64/12
f 37/72/50 24/73/51 22/71/50
f 40/52/52 26/74/53 28/75/52
f 40/56/54 27/30/55 18/54/55
f 5/41/56 24/20/56 6/23/56
f 7/7/57 30/6/58 8/6/59
f 12/76/60 16/77/61 15/78/60
f 29/79/62 26/22/63 25/27/63
f 8/80/18 29/79/18 25/27/18
f 34/81/64 16/33/64 11/82/65
f 31/31/66 38/83/66 39/84/67
f 27/23/68 15/85/69 18/54/69
f 39/86/70 21/87/71 26/74/71
f 1/1/1 2/5/1 3/2/1
f 5/4/2 6/65/72 2/5/2
f 4/6/3 3/23/4 7/7/4
f 9/8/6 10/88/6 11/9/7
f 13/11/8 10/88/8 9/8/8
f 15/13/9 16/89/73 17/14/10
f 19/16/11 20/25/74 21/17/12
f 23/19/14 19/16/14 22/18/14
f 20/21/15 25/27/16 26/22/16
f 1/24/17 4/3/17 20/25/17
f 4/26/18 8/80/18 25/27/18
f 28/28/19 29/79/19 30/29/20
f 31/31/21 32/90/75 17/32/21
f 11/34/23 10/37/23 33/35/23
f 10/37/24 13/40/24 35/38/24
f 36/39/25 35/38/76 13/40/26
f 1/24/28 19/16/28 23/19/28
f 34/36/29 33/35/29 37/42/29
f 35/38/31 36/39/31 37/42/32
f 32/43/33 31/91/34 39/44/34
f 6/46/36 24/73/36 36/47/37
f 17/49/38 32/53/38 41/50/38
f 40/52/39 43/60/39 41/50/39
f 18/54/40 44/58/77 43/55/40
f 18/54/41 17/92/41 42/57/41
f 2/62/46 9/93/78 12/63/46
f 6/65/47 14/54/79 9/66/47
f 3/67/48 12/94/80 15/68/48
f 38/70/49 37/72/81 22/71/13
f 37/72/50 36/47/50 24/73/51
f 40/52/52 39/86/53 26/74/53
f 40/56/54 28/28/82 27/30/55
f 5/41/56 23/19/56 24/20/56
f 7/7/57 27/23/57 30/6/58
f 12/76/60 11/95/60 16/77/61
f 29/79/62 28/28/62 26/22/63
f 8/80/18 30/29/18 29/79/18
f 34/81/64 31/31/64 16/33/64
f 31/31/66 34/81/66 38/83/66
f 27/23/68 7/7/69 15/85/69
f 39/86/70 38/48/83 21/87/71
