# Blender 4.1.1
# www.blender.org
o tv-screen
v -2.462054 1.622017 0.974054
v -2.550800 2.163850 0.249143
v -2.462055 2.163850 0.974054
v -2.550800 1.622017 0.249143
v -2.484472 2.186080 0.608911
v -2.464879 2.179440 0.871908
v -2.464879 1.606426 0.871908
v -2.446574 1.892933 0.988379
v -2.452169 1.705374 0.986387
v -2.528900 1.606426 0.348954
v -2.484471 1.599786 0.608911
v -2.539232 1.892933 0.231506
v -2.544182 1.705374 0.234790
v -2.452170 2.080493 0.986387
v -2.528900 2.179441 0.348954
v -2.544182 2.080493 0.234790
v -2.471373 1.697670 0.607307
v -2.464002 1.892933 0.606405
v -2.445301 1.892933 0.873138
v -2.451894 1.701586 0.872730
v -2.510196 1.892933 0.343037
v -2.516497 1.701586 0.345024
v -2.471373 2.088197 0.607307
v -2.451894 2.084280 0.872730
v -2.516497 2.084281 0.345024
vn 0.9966 -0.0380 -0.0726
vn 0.9995 -0.0299 0.0110
vn 0.9929 -0.1187 0.0064
vn 0.9884 -0.1343 -0.0706
vn 0.9673 -0.0299 -0.2518
vn 0.9847 -0.0380 -0.1700
vn 0.9621 -0.1187 -0.2457
vn 0.9763 -0.1334 -0.1703
vn 0.9966 0.0380 -0.0726
vn 0.9995 0.0299 0.0110
vn 0.9929 0.1187 0.0064
vn 0.9886 0.1334 -0.0703
vn 0.9847 0.0380 -0.1700
vn 0.9621 0.1187 -0.2457
vn 0.9763 0.1334 -0.1703
vn 0.9673 0.0299 -0.2518
vn 0.9970 -0.0342 -0.0699
vn 0.9994 -0.0344 0.0036
vn 0.9908 -0.1351 -0.0068
vn 0.9886 -0.1334 -0.0703
vn 0.9690 -0.0344 -0.2445
vn 0.9844 -0.0342 -0.1727
vn 0.9632 -0.1351 -0.2324
vn 0.9763 -0.1343 -0.1700
vn 0.9970 0.0342 -0.0699
vn 0.9994 0.0344 0.0036
vn 0.9908 0.1351 -0.0068
vn 0.9884 0.1343 -0.0706
vn 0.9844 0.0342 -0.1727
vn 0.9632 0.1351 -0.2324
vn 0.9763 0.1343 -0.1700
vn 0.9690 0.0344 -0.2446
vt 0.515095 0.194537
vt 0.444899 0.297141
vt 0.438500 0.196175
vt 0.446299 0.337563
vt 0.515108 0.296925
vt 0.515104 0.339300
vt 0.418050 0.332837
vt 0.410105 0.298566
vt 0.515083 0.088420
vt 0.435924 0.044668
vt 0.515088 0.041088
vt 0.436809 0.090145
vt 0.403687 0.052085
vt 0.398363 0.091602
vt 0.399704 0.198044
vt 0.585337 0.297141
vt 0.591695 0.196167
vt 0.583920 0.337581
vt 0.612194 0.332878
vt 0.620155 0.298565
vt 0.630484 0.198022
vt 0.593360 0.090173
vt 0.626443 0.052090
vt 0.594219 0.044733
vt 0.631803 0.091613
s 0
f 18/1/1 20/2/1 17/3/1
f 9/4/2 19/5/2 8/6/2
f 1/7/3 20/2/3 9/4/3
f 7/8/4 17/3/4 20/2/4
f 21/9/5 13/10/5 12/11/5
f 22/12/6 18/1/6 17/3/6
f 22/12/7 4/13/7 13/10/7
f 10/14/8 17/3/8 11/15/8
f 24/16/9 18/1/9 23/17/9
f 19/5/10 14/18/10 8/6/10
f 24/16/11 3/19/11 14/18/11
f 6/20/12 23/17/12 5/21/12
f 18/1/13 25/22/13 23/17/13
f 2/23/14 25/22/14 16/24/14
f 23/17/15 15/25/15 5/21/15
f 16/24/16 21/9/16 12/11/16
f 18/1/17 19/5/17 20/2/17
f 9/4/18 20/2/18 19/5/18
f 1/7/19 7/8/19 20/2/19
f 7/8/20 11/15/20 17/3/20
f 21/9/21 22/12/21 13/10/21
f 22/12/22 21/9/22 18/1/22
f 22/12/23 10/14/23 4/13/23
f 10/14/24 22/12/24 17/3/24
f 24/16/25 19/5/25 18/1/25
f 19/5/26 24/16/26 14/18/26
f 24/16/27 6/20/27 3/19/27
f 6/20/28 24/16/28 23/17/28
f 18/1/29 21/9/29 25/22/29
f 2/23/30 15/25/30 25/22/30
f 23/17/31 25/22/31 15/25/31
f 16/24/32 25/22/32 21/9/32
